<svg width="420" height="160" viewBox="0 0 420 160" fill="none" xmlns="http://www.w3.org/2000/svg">
  <defs>
    <linearGradient id="g2" x1="0" y1="0" x2="1" y2="1">
      <stop offset="0%" stop-color="#0F6E56" />
      <stop offset="100%" stop-color="#2A9D8F" />
    </linearGradient>
  </defs>
  <rect width="420" height="160" rx="24" fill="#FFFFFF" />
  <path d="M60 40C92 18 124 16 156 38C180 54 188 88 172 116C158 140 120 152 88 130C66 114 54 80 60 40Z" fill="url(#g2)" />
  <path d="M82 44C110 32 136 36 152 54" stroke="#FFFFFF" stroke-width="10" stroke-linecap="round" />
  <path d="M106 80C128 66 150 70 166 86" stroke="#FFFFFF" stroke-width="10" stroke-linecap="round" />
  <circle cx="146" cy="72" r="6" fill="#FFFFFF" />
  <path d="M220 42H398" stroke="#111827" stroke-width="12" stroke-linecap="round" />
  <path d="M220 82H270" stroke="#111827" stroke-width="12" stroke-linecap="round" />
  <path d="M220 122H330" stroke="#111827" stroke-width="12" stroke-linecap="round" />
  <text x="220" y="64" font-family="Inter, Arial, sans-serif" font-size="42" font-weight="700" fill="#0F6E56">OdonTool</text>
  <text x="220" y="100" font-family="Inter, Arial, sans-serif" font-size="16" fill="#565656">Gestión Odontológica Inteligente</text>
</svg>